<svg xmlns="http://www.w3.org/2000/svg" viewBox="0 0 920 410" font-family="'JetBrains Mono',Consolas,Monaco,ui-monospace,monospace">
  <rect width="920" height="410" fill="#0d1117"/>
  <rect width="920" height="410" fill="none" stroke="#21262d" stroke-width="1"/>

  <!-- window chrome -->
  <rect x="0" y="0" width="920" height="34" fill="#161b22"/>
  <circle cx="22" cy="17" r="6" fill="#ff5f56"/>
  <circle cx="42" cy="17" r="6" fill="#ffbd2e"/>
  <circle cx="62" cy="17" r="6" fill="#27c93f"/>
  <text x="460" y="22" fill="#8b949e" font-size="13" text-anchor="middle">aman@phishguard: ~/profile</text>

  <g font-size="15" letter-spacing="0.2">
    <!-- whoami -->
    <text x="28" y="72" fill="#58a6ff" font-weight="bold">aman@phishguard</text>
    <text x="196" y="72" fill="#8b949e">:</text>
    <text x="208" y="72" fill="#3fb950">~</text>
    <text x="224" y="72" fill="#c9d1d9">$ whoami</text>
    <text x="48" y="98" fill="#3fb950" font-weight="bold">&gt; Aman Dalal — cybersecurity engineer &amp; threat-tool builder</text>

    <!-- focus -->
    <text x="28" y="134" fill="#58a6ff" font-weight="bold">aman@phishguard</text>
    <text x="196" y="134" fill="#8b949e">:</text>
    <text x="208" y="134" fill="#3fb950">~</text>
    <text x="224" y="134" fill="#c9d1d9">$ cat focus.txt</text>
    <text x="48" y="160" fill="#3fb950" font-weight="bold">&gt; defensive security tooling</text>
    <text x="48" y="184" fill="#8b949e">ML phishing detection · scam/fraud intel · recon automation</text>
    <text x="48" y="208" fill="#3fb950" font-weight="bold">&gt; hands-on TryHackMe</text>
    <text x="48" y="232" fill="#8b949e">red/blue team labs, ranked operator</text>
    <text x="48" y="256" fill="#3fb950" font-weight="bold">&gt; also ships full-stack</text>
    <text x="48" y="280" fill="#8b949e">Node.js · Java · web apps</text>

    <!-- projects -->
    <text x="28" y="316" fill="#58a6ff" font-weight="bold">aman@phishguard</text>
    <text x="196" y="316" fill="#8b949e">:</text>
    <text x="208" y="316" fill="#3fb950">~</text>
    <text x="224" y="316" fill="#c9d1d9">$ ls projects/</text>
    <text x="48" y="342" fill="#c9d1d9">phishguard-enterprise/  ai-scam-shield/  pocketfy/  java-college/</text>

    <!-- cursor -->
    <rect x="48" y="358" width="9" height="16" fill="#3fb950"/>
  </g>
</svg>
