<svg xmlns="http://www.w3.org/2000/svg" viewBox="0 0 900 600" font-family="'JetBrains Mono',Consolas,Monaco,ui-monospace,monospace">
  <defs>
    <linearGradient id="bg" x1="0" y1="0" x2="0" y2="1">
      <stop offset="0" stop-color="#0d1117"/>
      <stop offset="1" stop-color="#090c12"/>
    </linearGradient>
    <linearGradient id="accent" x1="0" y1="0" x2="0" y2="1">
      <stop offset="0" stop-color="#3fb950"/>
      <stop offset="0.5" stop-color="#58a6ff"/>
      <stop offset="1" stop-color="#a371f7"/>
    </linearGradient>
    <radialGradient id="haze" cx="0.82" cy="0.08" r="0.55">
      <stop offset="0" stop-color="#58a6ff" stop-opacity="0.10"/>
      <stop offset="1" stop-color="#000000" stop-opacity="0"/>
    </radialGradient>
    <pattern id="grid" width="26" height="26" patternUnits="userSpaceOnUse">
      <path d="M26 0H0V26" fill="none" stroke="#161b22" stroke-width="1"/>
    </pattern>
  </defs>

  <rect width="900" height="600" rx="12" fill="url(#bg)"/>
  <rect width="900" height="600" rx="12" fill="url(#grid)" opacity="0.5"/>
  <rect width="900" height="600" rx="12" fill="url(#haze)"/>
  <rect x="1" y="1" width="898" height="598" rx="12" fill="none" stroke="#30363d" stroke-width="1"/>
  <rect x="1" y="1" width="5" height="598" rx="2" fill="url(#accent)"/>

  <!-- title bar -->
  <rect x="0" y="0" width="900" height="34" rx="12" fill="#11161f"/>
  <rect x="0" y="18" width="900" height="16" fill="#11161f"/>
  <circle cx="22" cy="17" r="6" fill="#ff5f56"/>
  <circle cx="44" cy="17" r="6" fill="#ffbd2e"/>
  <circle cx="66" cy="17" r="6" fill="#27c93f"/>
  <text x="450" y="22" fill="#8b949e" font-size="13" text-anchor="middle" letter-spacing="0.5">aman@phishguard — ~/profile</text>

  <g font-size="16" letter-spacing="0.2">
    <!-- whoami -->
    <text x="34" y="72" fill="#58a6ff" font-weight="bold">aman@phishguard</text><text x="208" y="72" fill="#8b949e">:</text><text x="222" y="72" fill="#3fb950">~</text><text x="240" y="72" fill="#e6edf3">$ whoami</text>
    <text x="58" y="98" fill="#3fb950" font-weight="bold">&gt; Aman Dalal</text>
    <text x="58" y="120" fill="#8b949e">cybersecurity engineer &amp; threat-tool builder · BCA · India</text>

    <!-- focus -->
    <text x="34" y="156" fill="#58a6ff" font-weight="bold">aman@phishguard</text><text x="208" y="156" fill="#8b949e">:</text><text x="222" y="156" fill="#3fb950">~</text><text x="240" y="156" fill="#e6edf3">$ cat focus.txt</text>
    <text x="58" y="182" fill="#3fb950" font-weight="bold">&gt; defensive security tooling</text>
    <text x="58" y="204" fill="#8b949e">ML phishing detection · scam/fraud intel · recon automation</text>
    <text x="58" y="226" fill="#3fb950" font-weight="bold">&gt; hands-on TryHackMe</text>
    <text x="58" y="248" fill="#8b949e">red/blue team labs — ranked operator</text>
    <text x="58" y="270" fill="#3fb950" font-weight="bold">&gt; also builds full-stack</text>
    <text x="58" y="292" fill="#8b949e">Node.js · Java · web apps</text>

    <!-- projects -->
    <text x="34" y="328" fill="#58a6ff" font-weight="bold">aman@phishguard</text><text x="208" y="328" fill="#8b949e">:</text><text x="222" y="328" fill="#3fb950">~</text><text x="240" y="328" fill="#e6edf3">$ ls projects/</text>
    <text x="58" y="354" fill="#e6edf3">phishguard-enterprise/  <tspan fill="#3fb950">[🔒]</tspan> ML phishing detection</text>
    <text x="58" y="376" fill="#e6edf3">ai-scam-shield/         <tspan fill="#3fb950">[🔒]</tspan> scam/fraud detection</text>
    <text x="58" y="398" fill="#e6edf3">pocketfy/               <tspan fill="#58a6ff">[🌐]</tspan> full-stack music app</text>
    <text x="58" y="420" fill="#e6edf3">java-college-projects/ <tspan fill="#e3b341">[☕]</tspan> OOP / DB coursework</text>

    <!-- toolset -->
    <text x="34" y="456" fill="#58a6ff" font-weight="bold">aman@phishguard</text><text x="208" y="456" fill="#8b949e">:</text><text x="222" y="456" fill="#3fb950">~</text><text x="240" y="456" fill="#e6edf3">$ cat toolset.txt</text>
    <text x="58" y="482" fill="#8b949e">Python · PyQt6 · scikit-learn · VirusTotal · RDAP · Shodan · SQLmap · nmap</text>
    <text x="58" y="504" fill="#8b949e">Java · JavaScript · Node.js · Git · Linux</text>

    <!-- training + links -->
    <text x="34" y="540" fill="#58a6ff" font-weight="bold">aman@phishguard</text><text x="208" y="540" fill="#8b949e">:</text><text x="222" y="540" fill="#3fb950">~</text><text x="240" y="540" fill="#e6edf3">$ watch --training</text>
    <text x="58" y="566" fill="#8b949e">[active] TryHackMe · [building] PhishGuard · [learning] RE · malware · CTF</text>
    <text x="58" y="588" fill="#8b949e">links: github.com/amandalal007 · tryhackme.com/p/amandalal · amandalal1937@gmail.com</text>
  </g>
</svg>
